<svg width="30" height="30" viewBox="0 0 30 30" fill="none" xmlns="http://www.w3.org/2000/svg">
<circle cx="15" cy="15" r="15" fill="#5DEF8B"/>
<path d="M14.8797 9.62638C15.1456 9.18978 15.8196 7.96359 16.3703 6.90461C16.9304 5.83634 17.3956 4.98172 17.4051 5.0003C17.4146 5.01888 17.5854 6.19862 17.7753 7.62917C17.9652 9.05973 18.193 10.5274 18.2785 10.8804C18.3924 11.3821 18.5253 11.6422 18.8196 11.9952C19.038 12.2553 19.3797 12.5711 19.5886 12.7104C19.788 12.8405 20.4146 13.1749 20.9842 13.4536C21.5443 13.723 22 13.9645 22 13.9924C22 14.0202 21.4968 14.2803 20.8892 14.5683C20.0823 14.9492 19.5032 15.3021 18.8196 15.8502C18.2975 16.2589 17.7943 16.6955 17.7089 16.807C17.6234 16.9185 17.1297 17.8474 16.6171 18.8692C16.0949 19.8911 15.3165 21.4888 14.8703 22.4178C14.4335 23.3374 14.0443 24.0527 14.0158 23.997C13.9873 23.9319 13.9114 23.4303 13.8449 22.8637C13.7785 22.297 13.6266 21.1544 13.5032 20.3091C13.3797 19.4638 13.1709 18.4326 13.038 18.0053C12.8861 17.5502 12.6867 17.1321 12.5253 16.9649C12.3829 16.8163 11.9272 16.4912 11.5095 16.2497C11.0918 16.0081 9.90506 15.4508 8.87025 15.0142C7.84494 14.5776 7 14.206 7 14.1781C7 14.1503 7.52215 13.9088 8.16772 13.6301C8.8038 13.3514 10.1329 12.8033 11.1297 12.4132L11.1298 12.4132C12.1171 12.0137 13.1044 11.6143 13.3133 11.5028C13.5222 11.4006 13.8544 11.1127 14.0443 10.8619C14.2342 10.6203 14.6139 10.063 14.8797 9.62638Z" fill="white"/>
</svg>
